<svg width="967" height="580" viewBox="0 0 967 580" fill="none" xmlns="http://www.w3.org/2000/svg">
<g clip-path="url(#clip0_2_13)">
<path fill-rule="evenodd" clip-rule="evenodd" d="M289.703 104H313.883V112.09C374.391 125.924 381.305 155.077 346.227 200.801C349.938 155.351 345.367 145.62 313.883 143.51V258.404C313.923 259.016 313.923 259.629 313.883 260.241C313.883 275.169 298.258 289.98 278.922 293.341C259.586 296.702 244 287.284 244 272.316C244 251.956 271.969 234.253 289.703 240.506V104ZM646.344 104H670.523V112.09C730.992 125.924 737.906 155.077 702.828 200.801C706.734 155.351 701.969 145.62 670.523 143.51V258.404C670.523 258.99 670.523 259.616 670.523 260.241C670.523 275.169 654.898 289.98 635.367 293.341C615.836 296.702 600.211 287.284 600.211 272.316C600.211 251.956 628.18 234.253 645.914 240.506V104H646.344ZM519.43 372.243C525.25 371.163 531.229 371.269 537.008 372.556V249.103L406.422 286.581C406.422 335.196 406.422 383.785 406.422 432.348C406.422 455.092 381.344 471.662 361.227 475.336C336.266 479.634 315.992 467.52 315.992 447.98C315.992 428.44 336.383 409.525 361.188 405.227C369.641 403.616 378.364 404.181 386.539 406.868V230.384L556.617 191.656V390.494C558.492 411.597 537.086 427.58 519.273 430.667C498.414 434.263 481.539 424.102 481.539 407.962C481.539 391.822 498.414 375.839 519.273 372.243H519.43Z" fill="#008CFF"/>
</g>
<defs>
<clipPath id="clip0_2_13">
<rect width="480" height="372" fill="white" transform="translate(244 104)"/>
</clipPath>
</defs>
</svg>
